<?xml version="1.0" encoding="UTF-8" standalone="no"?>
<svg
   xmlns:dc="http://purl.org/dc/elements/1.1/"
   xmlns:cc="http://creativecommons.org/ns#"
   xmlns:rdf="http://www.w3.org/1999/02/22-rdf-syntax-ns#"
   xmlns:svg="http://www.w3.org/2000/svg"
   xmlns="http://www.w3.org/2000/svg"
   xmlns:sodipodi="http://sodipodi.sourceforge.net/DTD/sodipodi-0.dtd"
   xmlns:inkscape="http://www.inkscape.org/namespaces/inkscape"
   sodipodi:docname="thumbnail.svg"
   inkscape:version="1.0.2 (1.0.2+r75+1)"
   id="svg8"
   version="1.1"
   viewBox="0 0 11.367394 11.367394"
   height="11.367394mm"
   width="11.367394mm">
  <defs
     id="defs2" />
  <sodipodi:namedview
     showguides="false"
     inkscape:document-rotation="0"
     inkscape:snap-global="false"
     inkscape:pagecheckerboard="false"
     inkscape:window-maximized="1"
     inkscape:window-y="27"
     inkscape:window-x="67"
     inkscape:window-height="1025"
     inkscape:window-width="1853"
     showborder="true"
     showgrid="false"
     inkscape:current-layer="layer1"
     inkscape:document-units="px"
     inkscape:cy="20.024929"
     inkscape:cx="41.319547"
     inkscape:zoom="11.970427"
     inkscape:pageshadow="2"
     inkscape:pageopacity="0"
     borderopacity="1.0"
     bordercolor="#666666"
     pagecolor="#ffffff"
     id="base"
     fit-margin-top="0"
     fit-margin-left="0"
     fit-margin-right="0"
     fit-margin-bottom="0" />
  <metadata
     id="metadata5">
    <rdf:RDF>
      <cc:Work
         rdf:about="">
        <dc:format>image/svg+xml</dc:format>
        <dc:type
           rdf:resource="http://purl.org/dc/dcmitype/StillImage" />
        <dc:title></dc:title>
      </cc:Work>
    </rdf:RDF>
  </metadata>
  <g
     id="layer1"
     inkscape:groupmode="layer"
     inkscape:label="Layer 1"
     transform="translate(120.3223,-533.57833)">
    <path
       id="path834"
       style="opacity:1;fill:#3b3b5e;fill-opacity:1;stroke-width:0.264583;paint-order:fill markers stroke;stop-color:#000000"
       d="m -108.95491,539.26202 a 5.6836972,5.6836972 0 0 1 -5.68369,5.6837 5.6836972,5.6836972 0 0 1 -5.6837,-5.6837 5.6836972,5.6836972 0 0 1 5.6837,-5.68369 5.6836972,5.6836972 0 0 1 5.68369,5.68369 z" />
    <g
       aria-label="カ"
       id="text832"
       style="font-size:8.46667px;line-height:1.25;font-family:'Times New Roman';-inkscape-font-specification:'Times New Roman, ';letter-spacing:0px;word-spacing:0px;fill:#ffffff;fill-opacity:0.5;stroke-width:0.264583"
       transform="translate(-1.5e-5,4.1672194e-5)">
      <path
         d="m -115.07463,536.10852 c 0.1524,0.0254 0.38947,0.0593 0.54187,0.11854 0.127,0.0508 0.1524,0.11006 0.1524,0.27093 -0.008,0.254 -0.11007,0.92287 -0.21167,1.38007 -0.93133,0.11853 -1.86266,0.22013 -2.14206,0.22013 -0.2286,0 -0.3556,-0.28787 -0.47414,-0.51647 l -0.16933,0.0423 c -0.008,0.16933 -0.0169,0.37253 0.0508,0.5334 0.0677,0.19473 0.4064,0.6096 0.62653,0.6096 0.16934,0 0.22014,-0.11854 0.4826,-0.1778 0.23707,-0.0593 0.98214,-0.19474 1.524,-0.28787 -0.34713,1.1938 -0.98213,2.76014 -3.03953,4.22487 l 0.13547,0.16933 c 2.53153,-1.3208 3.21733,-3.47133 3.4798,-4.47887 0.52493,-0.0762 1.27,-0.1778 1.69333,-0.1778 0.0677,0 0.1016,0.0339 0.1016,0.0931 0,0.54186 -0.33866,2.60773 -0.88053,3.2766 -0.11853,0.14393 -0.2032,0.1524 -0.4318,0.0847 -0.16934,-0.0593 -0.60114,-0.254 -0.95674,-0.41487 l -0.1016,0.16087 c 0.4826,0.3556 0.75354,0.49953 0.8382,0.8128 0.0508,0.1778 0.11854,0.254 0.26247,0.254 0.29634,0 0.67734,-0.2286 0.889,-0.64347 0.508,-0.9398 0.7366,-2.06587 0.9144,-3.25967 0.0339,-0.23707 0.24554,-0.21167 0.24554,-0.39793 0,-0.1778 -0.49954,-0.57574 -0.67734,-0.57574 -0.13546,0 -0.2032,0.18627 -0.4318,0.21167 -0.2794,0.0339 -0.79586,0.1016 -1.3716,0.16933 0.0847,-0.34713 0.1524,-0.72813 0.19473,-0.94826 0.0593,-0.32174 0.25401,-0.32174 0.25401,-0.508 0,-0.21167 -0.56727,-0.51647 -0.88901,-0.52494 -0.16086,-0.008 -0.4318,0.0593 -0.6096,0.1016 z"
         style="fill:#ffffff;fill-opacity:0.5;stroke-width:0.264583"
         id="path838" />
    </g>
  </g>
</svg>
